<?xml version="1.0" encoding="utf-8"?>
<svg version="1.1"
xmlns="http://www.w3.org/2000/svg"
xmlns:xlink="http://www.w3.org/1999/xlink">
<!--
License: Creative Commons Attribution 4.0 International (CC BY 4.0)
Source: https://www.brandeps.com/icon/U/Usb-01
Editied by: Taras Labiak <kissarat@gmail.com>
-->
<path d="M56.8,35v11.3h2.8V52h-8.5V29.3h5.7L48.3,18l-8.5,11.3h5.7V52H37v-5.9c2-1,3.4-3.1,3.4-5.5
	c0-3.4-2.8-6.2-6.2-6.2c-3.4,0-6.2,2.8-6.2,6.2c0,2.4,1.4,4.4,3.4,5.5V52c0,3.1,2.5,5.7,5.7,5.7h8.5v8.6c-2,1-3.4,3.1-3.4,5.5
	c0,3.4,2.8,6.2,6.2,6.2c3.4,0,6.2-2.8,6.2-6.2c0-2.4-1.4-4.5-3.4-5.5v-8.6h8.5c3.1,0,5.7-2.5,5.7-5.7v-5.7h2.8V35H56.8z"/>
</svg>
